<svg width="27" height="27" viewBox="0 0 27 27" fill="none" xmlns="http://www.w3.org/2000/svg">
<g clip-path="url(#clip0_12265_87)">
<path d="M22.2074 8.33291C21.8257 8.33291 21.4624 8.41255 21.1324 8.55564C20.7312 7.54182 19.7471 6.82309 18.5988 6.82309C18.1723 6.82309 17.7683 6.92236 17.4085 7.09891C16.9531 6.221 16.0405 5.61982 14.9905 5.61982C14.6818 5.61982 14.3855 5.67246 14.1086 5.76818V2.74555C14.1087 1.23173 12.8855 0 11.3818 0C9.87838 0 8.65529 1.23173 8.65529 2.74555V13.6222L6.69147 11.3755C6.67774 11.3601 6.66374 11.345 6.6492 11.3305C6.13356 10.8145 5.44729 10.5285 4.71683 10.5249C4.71211 10.5249 4.70765 10.5249 4.70292 10.5249C3.9742 10.5249 3.29192 10.8063 2.78056 11.318C1.87892 12.2199 1.82901 13.5586 2.64401 14.9915C3.69901 16.8451 4.84583 18.5929 5.85774 20.1352C6.5972 21.2623 7.29574 22.3268 7.80638 23.207C8.2492 23.9708 9.42465 26.448 9.43665 26.473C9.5892 26.7949 9.91365 27.0001 10.2697 27.0001H21.9306C22.3312 27.0001 22.6858 26.7416 22.8087 26.3605C23.0261 25.6843 24.934 19.688 24.934 17.3723V11.0787C24.9338 9.56455 23.7108 8.33291 22.2074 8.33291ZM21.3256 11.0786C21.3256 10.5815 21.7212 10.1772 22.2074 10.1772C22.6938 10.1772 23.0895 10.5815 23.0895 11.0786V17.3722C23.0895 18.9111 21.9067 23.0483 21.2541 25.1556H10.8512C10.4688 24.36 9.7522 22.8862 9.40174 22.2817C8.86565 21.3574 8.15356 20.2722 7.39974 19.1232C6.40283 17.6041 5.27311 15.8821 4.24692 14.0794C3.97911 13.6084 3.73365 12.9734 4.08511 12.6219C4.24901 12.4576 4.46974 12.3718 4.70792 12.3693C4.94038 12.3705 5.15901 12.4581 5.32656 12.6166L8.88329 16.6853C9.13601 16.9746 9.5422 17.0767 9.90165 16.9417C10.2615 16.8066 10.4997 16.4625 10.4997 16.0784V2.74555C10.4997 2.24855 10.8955 1.84436 11.3819 1.84436C11.8685 1.84436 12.2643 2.24855 12.2643 2.74555V11.3556C12.2643 11.8649 12.6773 12.2778 13.1865 12.2778C13.6957 12.2778 14.1087 11.8649 14.1087 11.3556V8.36509C14.1087 7.86836 14.5043 7.46427 14.9906 7.46427C15.477 7.46427 15.8727 7.86836 15.8727 8.36509V12.5585C15.8727 13.068 16.2856 13.4807 16.7947 13.4807C17.304 13.4807 17.717 13.0681 17.717 12.5585V9.56864C17.717 9.07164 18.1127 8.66737 18.5989 8.66737C19.0855 8.66737 19.4813 9.07164 19.4813 9.56864V13.7623C19.4813 14.2715 19.8942 14.6845 20.4035 14.6845C20.9128 14.6845 21.3257 14.2715 21.3257 13.7623V11.0786H21.3256Z" fill="black"/>
</g>
<defs>
<clipPath id="clip0_12265_87">
<rect width="27" height="27" fill="white"/>
</clipPath>
</defs>
</svg>
